<mxfile host="app.diagrams.net" agent="Mozilla/5.0 (Windows NT 10.0; Win64; x64) AppleWebKit/537.36 (KHTML, like Gecko) Chrome/130.0.0.0 Safari/537.36" version="24.8.1">
  <diagram name="Side-1" id="aJmklAyvtg5XaqULvBCQ">
    <mxGraphModel dx="3703" dy="1066" grid="1" gridSize="10" guides="1" tooltips="1" connect="1" arrows="1" fold="1" page="1" pageScale="1" pageWidth="827" pageHeight="1169" math="0" shadow="0">
      <root>
        <mxCell id="0" />
        <mxCell id="1" parent="0" />
        <mxCell id="__iS7JAtG7eG2xqVKWpH-26" style="edgeStyle=orthogonalEdgeStyle;rounded=0;orthogonalLoop=1;jettySize=auto;html=1;exitX=1;exitY=0.5;exitDx=0;exitDy=0;exitPerimeter=0;" edge="1" parent="1" source="__iS7JAtG7eG2xqVKWpH-2">
          <mxGeometry relative="1" as="geometry">
            <mxPoint x="80" y="142" as="targetPoint" />
            <Array as="points">
              <mxPoint x="130" y="142" />
            </Array>
          </mxGeometry>
        </mxCell>
        <mxCell id="__iS7JAtG7eG2xqVKWpH-9" style="edgeStyle=orthogonalEdgeStyle;rounded=0;orthogonalLoop=1;jettySize=auto;html=1;exitX=1;exitY=0.5;exitDx=0;exitDy=0;exitPerimeter=0;" edge="1" parent="1" source="__iS7JAtG7eG2xqVKWpH-3">
          <mxGeometry relative="1" as="geometry">
            <mxPoint x="640" y="223" as="targetPoint" />
          </mxGeometry>
        </mxCell>
        <mxCell id="__iS7JAtG7eG2xqVKWpH-19" style="edgeStyle=orthogonalEdgeStyle;rounded=0;orthogonalLoop=1;jettySize=auto;html=1;exitX=0;exitY=0.5;exitDx=0;exitDy=0;exitPerimeter=0;startArrow=classic;startFill=1;endArrow=none;endFill=0;" edge="1" parent="1" source="__iS7JAtG7eG2xqVKWpH-3">
          <mxGeometry relative="1" as="geometry">
            <mxPoint x="80" y="223" as="targetPoint" />
          </mxGeometry>
        </mxCell>
        <mxCell id="__iS7JAtG7eG2xqVKWpH-3" value="" style="verticalLabelPosition=bottom;shadow=0;dashed=0;align=center;html=1;verticalAlign=top;shape=mxgraph.electrical.abstract.amplifier;direction=east;" vertex="1" parent="1">
          <mxGeometry x="400" y="198" width="40" height="50" as="geometry" />
        </mxCell>
        <mxCell id="__iS7JAtG7eG2xqVKWpH-5" style="edgeStyle=orthogonalEdgeStyle;rounded=0;orthogonalLoop=1;jettySize=auto;html=1;exitX=0.5;exitY=1;exitDx=0;exitDy=0;entryX=0.474;entryY=0.232;entryDx=0;entryDy=0;entryPerimeter=0;endArrow=classic;endFill=1;" edge="1" parent="1" source="__iS7JAtG7eG2xqVKWpH-4" target="__iS7JAtG7eG2xqVKWpH-3">
          <mxGeometry relative="1" as="geometry">
            <mxPoint x="419" y="208" as="targetPoint" />
          </mxGeometry>
        </mxCell>
        <mxCell id="__iS7JAtG7eG2xqVKWpH-11" style="edgeStyle=orthogonalEdgeStyle;rounded=0;orthogonalLoop=1;jettySize=auto;html=1;exitX=0;exitY=0.5;exitDx=0;exitDy=0;exitPerimeter=0;entryX=1;entryY=0.5;entryDx=0;entryDy=0;entryPerimeter=0;endArrow=none;endFill=0;startArrow=classic;startFill=1;" edge="1" parent="1" source="__iS7JAtG7eG2xqVKWpH-2" target="__iS7JAtG7eG2xqVKWpH-3">
          <mxGeometry relative="1" as="geometry" />
        </mxCell>
        <mxCell id="__iS7JAtG7eG2xqVKWpH-14" value="&lt;font style=&quot;font-size: 18px;&quot;&gt;IO&lt;/font&gt;" style="text;html=1;align=center;verticalAlign=middle;whiteSpace=wrap;rounded=0;" vertex="1" parent="1">
          <mxGeometry x="490" y="200" width="30" height="20" as="geometry" />
        </mxCell>
        <mxCell id="__iS7JAtG7eG2xqVKWpH-15" value="&lt;font style=&quot;font-size: 18px;&quot;&gt;Ext. Sample Memory&lt;br&gt;(SRAM IC)&lt;/font&gt;" style="swimlane;whiteSpace=wrap;html=1;startSize=50;" vertex="1" parent="1">
          <mxGeometry x="640" y="148" width="200" height="332" as="geometry" />
        </mxCell>
        <mxCell id="__iS7JAtG7eG2xqVKWpH-41" value="&lt;font style=&quot;font-size: 16px;&quot;&gt;nWE&lt;/font&gt;" style="text;html=1;align=center;verticalAlign=middle;whiteSpace=wrap;rounded=0;" vertex="1" parent="__iS7JAtG7eG2xqVKWpH-15">
          <mxGeometry y="242" width="50" height="20" as="geometry" />
        </mxCell>
        <mxCell id="__iS7JAtG7eG2xqVKWpH-43" value="&lt;font style=&quot;font-size: 16px;&quot;&gt;nOE&lt;/font&gt;" style="text;html=1;align=center;verticalAlign=middle;whiteSpace=wrap;rounded=0;" vertex="1" parent="__iS7JAtG7eG2xqVKWpH-15">
          <mxGeometry y="202" width="50" height="20" as="geometry" />
        </mxCell>
        <mxCell id="__iS7JAtG7eG2xqVKWpH-44" value="&lt;font style=&quot;font-size: 16px;&quot;&gt;nCE&lt;/font&gt;" style="text;html=1;align=center;verticalAlign=middle;whiteSpace=wrap;rounded=0;" vertex="1" parent="__iS7JAtG7eG2xqVKWpH-15">
          <mxGeometry y="162" width="50" height="20" as="geometry" />
        </mxCell>
        <mxCell id="__iS7JAtG7eG2xqVKWpH-45" value="&lt;font style=&quot;font-size: 16px;&quot;&gt;ADDR&lt;/font&gt;" style="text;html=1;align=center;verticalAlign=middle;whiteSpace=wrap;rounded=0;" vertex="1" parent="__iS7JAtG7eG2xqVKWpH-15">
          <mxGeometry y="122" width="60" height="20" as="geometry" />
        </mxCell>
        <mxCell id="__iS7JAtG7eG2xqVKWpH-46" value="&lt;font style=&quot;font-size: 16px;&quot;&gt;DATA&lt;/font&gt;" style="text;html=1;align=center;verticalAlign=middle;whiteSpace=wrap;rounded=0;" vertex="1" parent="__iS7JAtG7eG2xqVKWpH-15">
          <mxGeometry y="65" width="50" height="20" as="geometry" />
        </mxCell>
        <mxCell id="__iS7JAtG7eG2xqVKWpH-23" style="edgeStyle=orthogonalEdgeStyle;rounded=0;orthogonalLoop=1;jettySize=auto;html=1;entryX=0.5;entryY=1;entryDx=0;entryDy=0;" edge="1" parent="1" target="__iS7JAtG7eG2xqVKWpH-4">
          <mxGeometry relative="1" as="geometry">
            <mxPoint x="80" y="180" as="sourcePoint" />
            <mxPoint x="419" y="170" as="targetPoint" />
            <Array as="points">
              <mxPoint x="419" y="180" />
            </Array>
          </mxGeometry>
        </mxCell>
        <mxCell id="__iS7JAtG7eG2xqVKWpH-34" style="edgeStyle=orthogonalEdgeStyle;rounded=0;orthogonalLoop=1;jettySize=auto;html=1;" edge="1" parent="1">
          <mxGeometry relative="1" as="geometry">
            <mxPoint x="640" y="280" as="targetPoint" />
            <mxPoint x="80" y="280" as="sourcePoint" />
          </mxGeometry>
        </mxCell>
        <mxCell id="__iS7JAtG7eG2xqVKWpH-38" style="edgeStyle=orthogonalEdgeStyle;rounded=0;orthogonalLoop=1;jettySize=auto;html=1;" edge="1" parent="1">
          <mxGeometry relative="1" as="geometry">
            <mxPoint x="80" y="320" as="sourcePoint" />
            <mxPoint x="640" y="320" as="targetPoint" />
          </mxGeometry>
        </mxCell>
        <mxCell id="__iS7JAtG7eG2xqVKWpH-39" style="edgeStyle=orthogonalEdgeStyle;rounded=0;orthogonalLoop=1;jettySize=auto;html=1;" edge="1" parent="1">
          <mxGeometry relative="1" as="geometry">
            <mxPoint x="640" y="360" as="targetPoint" />
            <mxPoint x="80" y="360" as="sourcePoint" />
          </mxGeometry>
        </mxCell>
        <mxCell id="__iS7JAtG7eG2xqVKWpH-40" style="edgeStyle=orthogonalEdgeStyle;rounded=0;orthogonalLoop=1;jettySize=auto;html=1;" edge="1" parent="1">
          <mxGeometry relative="1" as="geometry">
            <mxPoint x="640" y="400" as="targetPoint" />
            <mxPoint x="80" y="400" as="sourcePoint" />
          </mxGeometry>
        </mxCell>
        <mxCell id="__iS7JAtG7eG2xqVKWpH-89" style="edgeStyle=orthogonalEdgeStyle;rounded=0;orthogonalLoop=1;jettySize=auto;html=1;endArrow=none;endFill=0;startArrow=classic;startFill=1;" edge="1" parent="1">
          <mxGeometry relative="1" as="geometry">
            <mxPoint x="-690" y="140" as="targetPoint" />
            <mxPoint x="-300" y="140" as="sourcePoint" />
          </mxGeometry>
        </mxCell>
        <mxCell id="__iS7JAtG7eG2xqVKWpH-90" style="edgeStyle=orthogonalEdgeStyle;rounded=0;orthogonalLoop=1;jettySize=auto;html=1;" edge="1" parent="1">
          <mxGeometry relative="1" as="geometry">
            <mxPoint x="-690" y="180" as="targetPoint" />
            <mxPoint x="-300" y="180" as="sourcePoint" />
          </mxGeometry>
        </mxCell>
        <mxCell id="__iS7JAtG7eG2xqVKWpH-16" value="&lt;font style=&quot;font-size: 18px;&quot;&gt;Ext_ReadWrite&lt;br&gt;&lt;/font&gt;" style="swimlane;whiteSpace=wrap;html=1;startSize=50;" vertex="1" parent="1">
          <mxGeometry x="-300" y="30" width="380" height="410" as="geometry" />
        </mxCell>
        <mxCell id="__iS7JAtG7eG2xqVKWpH-56" value="&lt;font style=&quot;font-size: 16px;&quot;&gt;SampleByteToRam&lt;/font&gt;" style="text;html=1;align=center;verticalAlign=middle;whiteSpace=wrap;rounded=0;" vertex="1" parent="__iS7JAtG7eG2xqVKWpH-16">
          <mxGeometry x="10" y="100" width="150" height="20" as="geometry" />
        </mxCell>
        <mxCell id="__iS7JAtG7eG2xqVKWpH-57" value="&lt;font style=&quot;font-size: 16px;&quot;&gt;SampleByteFromRam&lt;/font&gt;" style="text;html=1;align=center;verticalAlign=middle;whiteSpace=wrap;rounded=0;" vertex="1" parent="__iS7JAtG7eG2xqVKWpH-16">
          <mxGeometry x="10" y="140" width="170" height="20" as="geometry" />
        </mxCell>
        <mxCell id="__iS7JAtG7eG2xqVKWpH-58" value="&lt;font style=&quot;font-size: 16px;&quot;&gt;SampleRW&lt;/font&gt;" style="text;html=1;align=center;verticalAlign=middle;whiteSpace=wrap;rounded=0;" vertex="1" parent="__iS7JAtG7eG2xqVKWpH-16">
          <mxGeometry x="10" y="183" width="90" height="20" as="geometry" />
        </mxCell>
        <mxCell id="__iS7JAtG7eG2xqVKWpH-59" value="&lt;font style=&quot;font-size: 16px;&quot;&gt;Sample_ADDR&lt;/font&gt;" style="text;html=1;align=center;verticalAlign=middle;whiteSpace=wrap;rounded=0;" vertex="1" parent="__iS7JAtG7eG2xqVKWpH-16">
          <mxGeometry x="10" y="220" width="120" height="20" as="geometry" />
        </mxCell>
        <mxCell id="__iS7JAtG7eG2xqVKWpH-60" value="&lt;font style=&quot;font-size: 16px;&quot;&gt;CLK&lt;/font&gt;" style="text;html=1;align=center;verticalAlign=middle;whiteSpace=wrap;rounded=0;" vertex="1" parent="__iS7JAtG7eG2xqVKWpH-16">
          <mxGeometry x="10" y="260" width="40" height="20" as="geometry" />
        </mxCell>
        <mxCell id="__iS7JAtG7eG2xqVKWpH-30" value="&lt;font style=&quot;font-size: 16px;&quot;&gt;SampleRW_OUT&lt;/font&gt;" style="text;html=1;align=center;verticalAlign=middle;whiteSpace=wrap;rounded=0;" vertex="1" parent="__iS7JAtG7eG2xqVKWpH-16">
          <mxGeometry x="230" y="140" width="140" height="20" as="geometry" />
        </mxCell>
        <mxCell id="__iS7JAtG7eG2xqVKWpH-31" value="&lt;font style=&quot;font-size: 16px;&quot;&gt;EXT_MemDataToRam&lt;/font&gt;" style="text;html=1;align=center;verticalAlign=middle;whiteSpace=wrap;rounded=0;" vertex="1" parent="__iS7JAtG7eG2xqVKWpH-16">
          <mxGeometry x="200" y="183" width="170" height="20" as="geometry" />
        </mxCell>
        <mxCell id="__iS7JAtG7eG2xqVKWpH-32" value="&lt;font style=&quot;font-size: 16px;&quot;&gt;EXT_MemFromRam&lt;/font&gt;" style="text;html=1;align=center;verticalAlign=middle;whiteSpace=wrap;rounded=0;" vertex="1" parent="__iS7JAtG7eG2xqVKWpH-16">
          <mxGeometry x="210" y="100" width="160" height="20" as="geometry" />
        </mxCell>
        <mxCell id="__iS7JAtG7eG2xqVKWpH-33" value="&lt;font style=&quot;font-size: 16px;&quot;&gt;EXTAddrToRam&lt;/font&gt;" style="text;html=1;align=center;verticalAlign=middle;whiteSpace=wrap;rounded=0;" vertex="1" parent="__iS7JAtG7eG2xqVKWpH-16">
          <mxGeometry x="235" y="240" width="130" height="20" as="geometry" />
        </mxCell>
        <mxCell id="__iS7JAtG7eG2xqVKWpH-35" value="&lt;font style=&quot;font-size: 16px;&quot;&gt;Ext_nCE&lt;/font&gt;" style="text;html=1;align=center;verticalAlign=middle;whiteSpace=wrap;rounded=0;" vertex="1" parent="__iS7JAtG7eG2xqVKWpH-16">
          <mxGeometry x="290" y="280" width="70" height="20" as="geometry" />
        </mxCell>
        <mxCell id="__iS7JAtG7eG2xqVKWpH-36" value="&lt;font style=&quot;font-size: 16px;&quot;&gt;Ext_nOE&lt;/font&gt;" style="text;html=1;align=center;verticalAlign=middle;whiteSpace=wrap;rounded=0;" vertex="1" parent="__iS7JAtG7eG2xqVKWpH-16">
          <mxGeometry x="290" y="320" width="70" height="20" as="geometry" />
        </mxCell>
        <mxCell id="__iS7JAtG7eG2xqVKWpH-37" value="&lt;font style=&quot;font-size: 16px;&quot;&gt;Ext_nWE&lt;/font&gt;" style="text;html=1;align=center;verticalAlign=middle;whiteSpace=wrap;rounded=0;" vertex="1" parent="__iS7JAtG7eG2xqVKWpH-16">
          <mxGeometry x="290" y="360" width="70" height="20" as="geometry" />
        </mxCell>
        <mxCell id="__iS7JAtG7eG2xqVKWpH-24" value="&lt;span style=&quot;font-size: 18px;&quot;&gt;IO Buffer&lt;/span&gt;" style="swimlane;whiteSpace=wrap;html=1;startSize=50;" vertex="1" parent="1">
          <mxGeometry x="320" y="30" width="216" height="230" as="geometry" />
        </mxCell>
        <mxCell id="__iS7JAtG7eG2xqVKWpH-25" value="&lt;font style=&quot;font-size: 18px;&quot;&gt;T&lt;/font&gt;" style="text;html=1;align=center;verticalAlign=middle;whiteSpace=wrap;rounded=0;" vertex="1" parent="__iS7JAtG7eG2xqVKWpH-24">
          <mxGeometry x="10" y="125" width="30" height="20" as="geometry" />
        </mxCell>
        <mxCell id="__iS7JAtG7eG2xqVKWpH-27" value="&lt;font style=&quot;font-size: 18px;&quot;&gt;O&lt;/font&gt;" style="text;html=1;align=center;verticalAlign=middle;whiteSpace=wrap;rounded=0;" vertex="1" parent="__iS7JAtG7eG2xqVKWpH-24">
          <mxGeometry x="10" y="87" width="30" height="20" as="geometry" />
        </mxCell>
        <mxCell id="__iS7JAtG7eG2xqVKWpH-28" value="&lt;font style=&quot;font-size: 18px;&quot;&gt;I&lt;/font&gt;" style="text;html=1;align=center;verticalAlign=middle;whiteSpace=wrap;rounded=0;" vertex="1" parent="__iS7JAtG7eG2xqVKWpH-24">
          <mxGeometry x="10" y="170" width="30" height="20" as="geometry" />
        </mxCell>
        <mxCell id="__iS7JAtG7eG2xqVKWpH-4" value="" style="ellipse;whiteSpace=wrap;html=1;aspect=fixed;" vertex="1" parent="__iS7JAtG7eG2xqVKWpH-24">
          <mxGeometry x="94" y="125" width="10" height="10" as="geometry" />
        </mxCell>
        <mxCell id="__iS7JAtG7eG2xqVKWpH-2" value="" style="verticalLabelPosition=bottom;shadow=0;dashed=0;align=center;html=1;verticalAlign=top;shape=mxgraph.electrical.abstract.amplifier;direction=west;" vertex="1" parent="__iS7JAtG7eG2xqVKWpH-24">
          <mxGeometry x="80" y="87" width="40" height="50" as="geometry" />
        </mxCell>
        <mxCell id="__iS7JAtG7eG2xqVKWpH-47" value="&lt;font style=&quot;font-size: 16px;&quot;&gt;19&lt;/font&gt;" style="text;html=1;align=center;verticalAlign=middle;whiteSpace=wrap;rounded=0;" vertex="1" parent="1">
          <mxGeometry x="600" y="260" width="26" height="20" as="geometry" />
        </mxCell>
        <mxCell id="__iS7JAtG7eG2xqVKWpH-48" value="&lt;font style=&quot;font-size: 16px;&quot;&gt;8&lt;/font&gt;" style="text;html=1;align=center;verticalAlign=middle;whiteSpace=wrap;rounded=0;" vertex="1" parent="1">
          <mxGeometry x="600" y="200" width="26" height="20" as="geometry" />
        </mxCell>
        <mxCell id="__iS7JAtG7eG2xqVKWpH-49" value="" style="endArrow=none;html=1;rounded=0;" edge="1" parent="1">
          <mxGeometry width="50" height="50" relative="1" as="geometry">
            <mxPoint x="580" y="290" as="sourcePoint" />
            <mxPoint x="600" y="270" as="targetPoint" />
          </mxGeometry>
        </mxCell>
        <mxCell id="__iS7JAtG7eG2xqVKWpH-50" value="" style="endArrow=none;html=1;rounded=0;" edge="1" parent="1">
          <mxGeometry width="50" height="50" relative="1" as="geometry">
            <mxPoint x="580" y="233" as="sourcePoint" />
            <mxPoint x="600" y="213" as="targetPoint" />
          </mxGeometry>
        </mxCell>
        <mxCell id="__iS7JAtG7eG2xqVKWpH-91" style="edgeStyle=orthogonalEdgeStyle;rounded=0;orthogonalLoop=1;jettySize=auto;html=1;" edge="1" parent="1">
          <mxGeometry relative="1" as="geometry">
            <mxPoint x="-300.0000000000002" y="220" as="targetPoint" />
            <mxPoint x="-690" y="220" as="sourcePoint" />
          </mxGeometry>
        </mxCell>
        <mxCell id="__iS7JAtG7eG2xqVKWpH-92" style="edgeStyle=orthogonalEdgeStyle;rounded=0;orthogonalLoop=1;jettySize=auto;html=1;" edge="1" parent="1">
          <mxGeometry relative="1" as="geometry">
            <mxPoint x="-300" y="260" as="targetPoint" />
            <mxPoint x="-690" y="260" as="sourcePoint" />
          </mxGeometry>
        </mxCell>
        <mxCell id="__iS7JAtG7eG2xqVKWpH-93" style="edgeStyle=orthogonalEdgeStyle;rounded=0;orthogonalLoop=1;jettySize=auto;html=1;" edge="1" parent="1">
          <mxGeometry relative="1" as="geometry">
            <mxPoint x="-300.0000000000002" y="300" as="targetPoint" />
            <mxPoint x="-690" y="300" as="sourcePoint" />
          </mxGeometry>
        </mxCell>
        <mxCell id="__iS7JAtG7eG2xqVKWpH-61" value="&lt;font style=&quot;font-size: 18px;&quot;&gt;Ext. Memory Distribution&lt;/font&gt;" style="swimlane;whiteSpace=wrap;html=1;startSize=50;" vertex="1" parent="1">
          <mxGeometry x="-1030" y="33" width="340" height="410" as="geometry" />
        </mxCell>
        <mxCell id="__iS7JAtG7eG2xqVKWpH-74" value="&lt;span style=&quot;font-size: 16px;&quot;&gt;Data_EXT_MEM_DIST_TO_EXT_MEM&lt;/span&gt;" style="text;html=1;align=center;verticalAlign=middle;whiteSpace=wrap;rounded=0;" vertex="1" parent="__iS7JAtG7eG2xqVKWpH-61">
          <mxGeometry x="40" y="97" width="290" height="20" as="geometry" />
        </mxCell>
        <mxCell id="__iS7JAtG7eG2xqVKWpH-75" value="&lt;span style=&quot;font-size: 16px;&quot;&gt;Data_EXT_MEM_TO_EXT_MEM_DIST&lt;/span&gt;" style="text;html=1;align=center;verticalAlign=middle;whiteSpace=wrap;rounded=0;" vertex="1" parent="__iS7JAtG7eG2xqVKWpH-61">
          <mxGeometry x="40" y="137" width="290" height="20" as="geometry" />
        </mxCell>
        <mxCell id="__iS7JAtG7eG2xqVKWpH-76" value="&lt;span style=&quot;font-size: 16px;&quot;&gt;nRW_TO_EXT_MEM&lt;/span&gt;" style="text;html=1;align=center;verticalAlign=middle;whiteSpace=wrap;rounded=0;" vertex="1" parent="__iS7JAtG7eG2xqVKWpH-61">
          <mxGeometry x="170" y="177" width="160" height="20" as="geometry" />
        </mxCell>
        <mxCell id="__iS7JAtG7eG2xqVKWpH-77" value="&lt;span style=&quot;font-size: 16px;&quot;&gt;ADDR_EXT_MEM_DIST_TO_EXT_MEM&lt;/span&gt;" style="text;html=1;align=center;verticalAlign=middle;whiteSpace=wrap;rounded=0;" vertex="1" parent="__iS7JAtG7eG2xqVKWpH-61">
          <mxGeometry x="30" y="217" width="300" height="20" as="geometry" />
        </mxCell>
        <mxCell id="__iS7JAtG7eG2xqVKWpH-78" value="&lt;span style=&quot;font-size: 16px;&quot;&gt;CLK_TO_EXT_MEM_READ_WRITE&lt;/span&gt;" style="text;html=1;align=center;verticalAlign=middle;whiteSpace=wrap;rounded=0;" vertex="1" parent="__iS7JAtG7eG2xqVKWpH-61">
          <mxGeometry x="63" y="257" width="267" height="20" as="geometry" />
        </mxCell>
        <mxCell id="__iS7JAtG7eG2xqVKWpH-79" value="&lt;font style=&quot;font-size: 16px;&quot;&gt;sig_SampleByteToRam&lt;/font&gt;" style="text;html=1;align=center;verticalAlign=middle;whiteSpace=wrap;rounded=0;" vertex="1" parent="1">
          <mxGeometry x="-583" y="110" width="170" height="20" as="geometry" />
        </mxCell>
        <mxCell id="__iS7JAtG7eG2xqVKWpH-81" value="&lt;font style=&quot;font-size: 16px;&quot;&gt;sig_SampleByteFromRam&lt;/font&gt;" style="text;html=1;align=center;verticalAlign=middle;whiteSpace=wrap;rounded=0;" vertex="1" parent="1">
          <mxGeometry x="-593" y="150" width="190" height="20" as="geometry" />
        </mxCell>
        <mxCell id="__iS7JAtG7eG2xqVKWpH-82" value="&lt;font style=&quot;font-size: 16px;&quot;&gt;sig_SampleRW&lt;/font&gt;" style="text;html=1;align=center;verticalAlign=middle;whiteSpace=wrap;rounded=0;" vertex="1" parent="1">
          <mxGeometry x="-568" y="190" width="120" height="20" as="geometry" />
        </mxCell>
        <mxCell id="__iS7JAtG7eG2xqVKWpH-83" value="&lt;font style=&quot;font-size: 16px;&quot;&gt;sig_Sample_ADDR&lt;/font&gt;" style="text;html=1;align=center;verticalAlign=middle;whiteSpace=wrap;rounded=0;" vertex="1" parent="1">
          <mxGeometry x="-565" y="228" width="120" height="20" as="geometry" />
        </mxCell>
        <mxCell id="__iS7JAtG7eG2xqVKWpH-84" value="&lt;font style=&quot;font-size: 16px;&quot;&gt;sig_EXT_MEM_DIST_TO_EXT_MEM_RW&lt;/font&gt;" style="text;html=1;align=center;verticalAlign=middle;whiteSpace=wrap;rounded=0;" vertex="1" parent="1">
          <mxGeometry x="-665" y="270" width="320" height="20" as="geometry" />
        </mxCell>
        <mxCell id="__iS7JAtG7eG2xqVKWpH-54" value="&lt;font style=&quot;font-size: 16px;&quot;&gt;8&lt;/font&gt;" style="text;html=1;align=center;verticalAlign=middle;whiteSpace=wrap;rounded=0;" vertex="1" parent="1">
          <mxGeometry x="110" y="148" width="26" height="20" as="geometry" />
        </mxCell>
        <mxCell id="__iS7JAtG7eG2xqVKWpH-53" value="&lt;font style=&quot;font-size: 16px;&quot;&gt;8&lt;/font&gt;" style="text;html=1;align=center;verticalAlign=middle;whiteSpace=wrap;rounded=0;" vertex="1" parent="1">
          <mxGeometry x="110" y="228" width="26" height="20" as="geometry" />
        </mxCell>
        <mxCell id="__iS7JAtG7eG2xqVKWpH-52" value="" style="endArrow=none;html=1;rounded=0;" edge="1" parent="1">
          <mxGeometry width="50" height="50" relative="1" as="geometry">
            <mxPoint x="100" y="150" as="sourcePoint" />
            <mxPoint x="120" y="130" as="targetPoint" />
          </mxGeometry>
        </mxCell>
        <mxCell id="__iS7JAtG7eG2xqVKWpH-51" value="" style="endArrow=none;html=1;rounded=0;" edge="1" parent="1">
          <mxGeometry width="50" height="50" relative="1" as="geometry">
            <mxPoint x="100" y="233" as="sourcePoint" />
            <mxPoint x="120" y="213" as="targetPoint" />
          </mxGeometry>
        </mxCell>
      </root>
    </mxGraphModel>
  </diagram>
</mxfile>
